<svg xmlns="http://www.w3.org/2000/svg" width="190" height="19" viewBox="0 0 190 19" fill="none">
    <path d="M182.023 13.6554H180.592V18H174.765V1.17432H181.847C184.442 1.17432 186.301 1.60961 187.422 2.48019C188.544 3.33403 189.105 4.93288 189.105 7.27675C189.105 9.60388 188.485 11.2697 187.246 12.2742L188.904 18H182.977L182.023 13.6554ZM181.998 9.05977C182.818 9.05977 183.228 8.51566 183.228 7.42743C183.228 6.32246 182.768 5.76998 181.847 5.76998H180.566V9.05977H181.998Z" fill="white"/>
    <path d="M156.965 18V1.17432H169.571V5.82021H162.791V7.25164H168.065V11.8473H162.791V13.3541H169.571V18H156.965Z" fill="white"/>
    <path d="M139.397 5.92066V1.17432H151.953V5.92066H148.689V18H142.862V5.92066H139.397Z" fill="white"/>
    <path d="M134.342 6.02116C131.982 5.77003 130.266 5.64447 129.194 5.64447C128.123 5.64447 127.495 5.67795 127.311 5.74492C127.143 5.79514 127.06 5.91234 127.06 6.0965C127.06 6.28066 127.16 6.42297 127.361 6.52342C127.562 6.62387 128.19 6.79129 129.244 7.02568C130.316 7.26006 131.186 7.49445 131.856 7.72884C132.543 7.94648 133.154 8.26458 133.689 8.68313C134.242 9.08494 134.602 9.58719 134.769 10.1899C134.953 10.7759 135.045 11.5711 135.045 12.5756C135.045 14.6516 134.493 16.1333 133.388 17.0206C132.283 17.9079 130.617 18.3516 128.391 18.3516C127.319 18.3516 126.189 18.2763 125 18.1256C123.828 17.9749 122.924 17.8242 122.288 17.6736L121.309 17.4475L121.56 13.0026C124.121 13.3709 126.222 13.555 127.863 13.555C128.734 13.555 129.169 13.3625 129.169 12.9774C129.169 12.81 129.069 12.6928 128.868 12.6259C128.667 12.5421 128.123 12.4333 127.235 12.2994C124.891 11.9311 123.293 11.3618 122.439 10.5917C121.602 9.80484 121.183 8.52408 121.183 6.74943C121.183 4.48927 121.727 2.94064 122.815 2.10355C123.904 1.26645 125.578 0.8479 127.838 0.8479C129.429 0.8479 131.295 1.00695 133.438 1.32505L134.493 1.50084L134.342 6.02116Z" fill="white"/>
    <path d="M100.599 18L104.316 1.17432H113.13L116.922 18H111.046L110.569 16.0663H106.726L106.325 18H100.599ZM108.434 5.74487L107.48 11.6213H109.966L109.062 5.74487H108.434Z" fill="white"/>
    <path d="M75.9763 18V1.17432H84.6403L85.9461 7.60322L87.026 1.17432H95.9411V18H90.1149V9.33601H89.8386L88.3821 17.8242H83.5102L82.0788 9.33601H81.8025V18H75.9763Z" fill="white"/>
    <path d="M70.9724 18H59.6716V1.17432H65.4978V13.2536H70.9724V18Z" fill="white"/>
    <path d="M44.3547 9.58719C44.3547 11.0103 44.4886 12.0399 44.7565 12.6761C45.0411 13.2955 45.6187 13.6053 46.4893 13.6053C47.3766 13.6053 47.9542 13.2955 48.2221 12.6761C48.49 12.0566 48.6239 11.027 48.6239 9.58719C48.6239 8.13065 48.49 7.10102 48.2221 6.49831C47.971 5.87885 47.4017 5.56913 46.5144 5.56913C45.6271 5.56913 45.0411 5.88722 44.7565 6.52342C44.4886 7.14287 44.3547 8.16413 44.3547 9.58719ZM54.5003 9.58719C54.5003 12.651 53.8641 14.8776 52.5917 16.2672C51.3193 17.6401 49.2852 18.3265 46.4893 18.3265C43.7101 18.3265 41.676 17.6317 40.3869 16.2421C39.1145 14.8525 38.4783 12.6342 38.4783 9.58719C38.4783 6.52342 39.1145 4.30511 40.3869 2.93227C41.6592 1.54269 43.6934 0.8479 46.4893 0.8479C49.2852 0.8479 51.3193 1.54269 52.5917 2.93227C53.8641 4.30511 54.5003 6.52342 54.5003 9.58719Z" fill="white"/>
    <path d="M23.5129 9.58719C23.5129 11.0103 23.6468 12.0399 23.9147 12.6761C24.1993 13.2955 24.7769 13.6053 25.6475 13.6053C26.5348 13.6053 27.1124 13.2955 27.3803 12.6761C27.6482 12.0566 27.7821 11.027 27.7821 9.58719C27.7821 8.13065 27.6482 7.10102 27.3803 6.49831C27.1292 5.87885 26.5599 5.56913 25.6726 5.56913C24.7853 5.56913 24.1993 5.88722 23.9147 6.52342C23.6468 7.14287 23.5129 8.16413 23.5129 9.58719ZM33.6585 9.58719C33.6585 12.651 33.0223 14.8776 31.7499 16.2672C30.4775 17.6401 28.4434 18.3265 25.6475 18.3265C22.8683 18.3265 20.8342 17.6317 19.5451 16.2421C18.2727 14.8525 17.6365 12.6342 17.6365 9.58719C17.6365 6.52342 18.2727 4.30511 19.5451 2.93227C20.8174 1.54269 22.8516 0.8479 25.6475 0.8479C28.4434 0.8479 30.4775 1.54269 31.7499 2.93227C33.0223 4.30511 33.6585 6.52342 33.6585 9.58719Z" fill="white"/>
    <path d="M0.7146 5.92066V1.17432H13.2711V5.92066H10.0064V18H4.18018V5.92066H0.7146Z" fill="white"/>
</svg>