<svg width="190" height="46" viewBox="0 0 190 46" fill="none" xmlns="http://www.w3.org/2000/svg">
<path d="M182.023 16.6554H180.592V21H174.765V4.17432H181.847C184.442 4.17432 186.301 4.60961 187.422 5.48019C188.544 6.33403 189.105 7.93288 189.105 10.2768C189.105 12.6039 188.485 14.2697 187.246 15.2742L188.904 21H182.977L182.023 16.6554ZM181.998 12.0598C182.818 12.0598 183.228 11.5157 183.228 10.4274C183.228 9.32246 182.768 8.76998 181.847 8.76998H180.566V12.0598H181.998Z" fill="white" style="fill:white;fill:white;fill-opacity:1;"/>
<path d="M156.965 21V4.17432H169.571V8.82021H162.791V10.2516H168.065V14.8473H162.791V16.3541H169.571V21H156.965Z" fill="white" style="fill:white;fill:white;fill-opacity:1;"/>
<path d="M139.397 8.92066V4.17432H151.953V8.92066H148.689V21H142.862V8.92066H139.397Z" fill="white" style="fill:white;fill:white;fill-opacity:1;"/>
<path d="M134.342 9.02116C131.982 8.77003 130.266 8.64447 129.194 8.64447C128.123 8.64447 127.495 8.67795 127.311 8.74492C127.143 8.79514 127.06 8.91234 127.06 9.0965C127.06 9.28066 127.16 9.42297 127.361 9.52342C127.562 9.62387 128.19 9.79129 129.244 10.0257C130.316 10.2601 131.186 10.4945 131.856 10.7288C132.543 10.9465 133.154 11.2646 133.689 11.6831C134.242 12.0849 134.602 12.5872 134.769 13.1899C134.953 13.7759 135.045 14.5711 135.045 15.5756C135.045 17.6516 134.493 19.1333 133.388 20.0206C132.283 20.9079 130.617 21.3516 128.391 21.3516C127.319 21.3516 126.189 21.2763 125 21.1256C123.828 20.9749 122.924 20.8242 122.288 20.6736L121.309 20.4475L121.56 16.0026C124.121 16.3709 126.222 16.555 127.863 16.555C128.734 16.555 129.169 16.3625 129.169 15.9774C129.169 15.81 129.069 15.6928 128.868 15.6259C128.667 15.5421 128.123 15.4333 127.235 15.2994C124.891 14.9311 123.293 14.3618 122.439 13.5917C121.602 12.8048 121.183 11.5241 121.183 9.74943C121.183 7.48927 121.727 5.94064 122.815 5.10355C123.904 4.26645 125.578 3.8479 127.838 3.8479C129.429 3.8479 131.295 4.00695 133.438 4.32505L134.493 4.50084L134.342 9.02116Z" fill="white" style="fill:white;fill:white;fill-opacity:1;"/>
<path d="M100.599 21L104.316 4.17432H113.13L116.922 21H111.046L110.569 19.0663H106.726L106.325 21H100.599ZM108.434 8.74487L107.48 14.6213H109.966L109.062 8.74487H108.434Z" fill="white" style="fill:white;fill:white;fill-opacity:1;"/>
<path d="M75.9763 21V4.17432H84.6403L85.9461 10.6032L87.026 4.17432H95.9411V21H90.1149V12.336H89.8386L88.3821 20.8242H83.5102L82.0788 12.336H81.8025V21H75.9763Z" fill="white" style="fill:white;fill:white;fill-opacity:1;"/>
<path d="M70.9724 21H59.6716V4.17432H65.4978V16.2536H70.9724V21Z" fill="white" style="fill:white;fill:white;fill-opacity:1;"/>
<path d="M44.3547 12.5872C44.3547 14.0103 44.4886 15.0399 44.7565 15.6761C45.0411 16.2955 45.6187 16.6053 46.4893 16.6053C47.3766 16.6053 47.9542 16.2955 48.2221 15.6761C48.49 15.0566 48.6239 14.027 48.6239 12.5872C48.6239 11.1306 48.49 10.101 48.2221 9.49831C47.971 8.87885 47.4017 8.56913 46.5144 8.56913C45.6271 8.56913 45.0411 8.88722 44.7565 9.52342C44.4886 10.1429 44.3547 11.1641 44.3547 12.5872ZM54.5003 12.5872C54.5003 15.651 53.8641 17.8776 52.5917 19.2672C51.3193 20.6401 49.2852 21.3265 46.4893 21.3265C43.7101 21.3265 41.676 20.6317 40.3869 19.2421C39.1145 17.8525 38.4783 15.6342 38.4783 12.5872C38.4783 9.52342 39.1145 7.30511 40.3869 5.93227C41.6592 4.54269 43.6934 3.8479 46.4893 3.8479C49.2852 3.8479 51.3193 4.54269 52.5917 5.93227C53.8641 7.30511 54.5003 9.52342 54.5003 12.5872Z" fill="white" style="fill:white;fill:white;fill-opacity:1;"/>
<path d="M23.5129 12.5872C23.5129 14.0103 23.6468 15.0399 23.9147 15.6761C24.1993 16.2955 24.7769 16.6053 25.6475 16.6053C26.5348 16.6053 27.1124 16.2955 27.3803 15.6761C27.6482 15.0566 27.7821 14.027 27.7821 12.5872C27.7821 11.1306 27.6482 10.101 27.3803 9.49831C27.1292 8.87885 26.5599 8.56913 25.6726 8.56913C24.7853 8.56913 24.1993 8.88722 23.9147 9.52342C23.6468 10.1429 23.5129 11.1641 23.5129 12.5872ZM33.6585 12.5872C33.6585 15.651 33.0223 17.8776 31.7499 19.2672C30.4775 20.6401 28.4434 21.3265 25.6475 21.3265C22.8683 21.3265 20.8342 20.6317 19.5451 19.2421C18.2727 17.8525 17.6365 15.6342 17.6365 12.5872C17.6365 9.52342 18.2727 7.30511 19.5451 5.93227C20.8174 4.54269 22.8516 3.8479 25.6475 3.8479C28.4434 3.8479 30.4775 4.54269 31.7499 5.93227C33.0223 7.30511 33.6585 9.52342 33.6585 12.5872Z" fill="white" style="fill:white;fill:white;fill-opacity:1;"/>
<path d="M0.7146 8.92066V4.17432H13.2711V8.92066H10.0064V21H4.18018V8.92066H0.7146Z" fill="white" style="fill:white;fill:white;fill-opacity:1;"/>
<path d="M180.33 41.7756H178.804V34.7756H180.316V35.2096C180.978 34.8176 181.585 34.6216 182.136 34.6216C182.948 34.6216 183.54 34.8502 183.914 35.3076C184.763 34.8502 185.608 34.6216 186.448 34.6216C187.288 34.6216 187.88 34.8829 188.226 35.4056C188.571 35.9189 188.744 36.7916 188.744 38.0236V41.7756H187.232V38.0656C187.232 37.3096 187.152 36.7729 186.994 36.4556C186.844 36.1382 186.527 35.9796 186.042 35.9796C185.622 35.9796 185.169 36.0729 184.684 36.2596L184.446 36.3576C184.52 36.5442 184.558 37.1416 184.558 38.1496V41.7756H183.046V38.1776C183.046 37.3469 182.971 36.7729 182.822 36.4556C182.672 36.1382 182.346 35.9796 181.842 35.9796C181.375 35.9796 180.941 36.0729 180.54 36.2596L180.33 36.3436V41.7756Z" fill="white" style="fill:white;fill:white;fill-opacity:1;"/>
<path d="M176.888 36.9316V40.1236C176.898 40.3289 176.949 40.4829 177.042 40.5856C177.145 40.6789 177.299 40.7396 177.504 40.7676L177.462 41.9296C176.66 41.9296 176.039 41.7569 175.6 41.4116C174.854 41.7569 174.102 41.9296 173.346 41.9296C171.956 41.9296 171.26 41.1876 171.26 39.7036C171.26 38.9942 171.447 38.4809 171.82 38.1636C172.203 37.8462 172.786 37.6549 173.57 37.5896L175.376 37.4356V36.9316C175.376 36.5582 175.292 36.2969 175.124 36.1476C174.966 35.9982 174.728 35.9236 174.41 35.9236C173.813 35.9236 173.066 35.9609 172.17 36.0356L171.722 36.0636L171.666 34.9856C172.684 34.7429 173.617 34.6216 174.466 34.6216C175.325 34.6216 175.941 34.8082 176.314 35.1816C176.697 35.5456 176.888 36.1289 176.888 36.9316ZM173.752 38.6676C173.108 38.7236 172.786 39.0736 172.786 39.7176C172.786 40.3616 173.071 40.6836 173.64 40.6836C174.107 40.6836 174.602 40.6089 175.124 40.4596L175.376 40.3756V38.5136L173.752 38.6676Z" fill="white" style="fill:white;fill:white;fill-opacity:1;"/>
<path d="M166.649 41.7756V34.7756H168.161V35.6156C168.955 35.1022 169.748 34.7709 170.541 34.6216V36.1476C169.739 36.3062 169.053 36.5116 168.483 36.7636L168.175 36.8896V41.7756H166.649Z" fill="white" style="fill:white;fill:white;fill-opacity:1;"/>
<path d="M165.412 42.7275C165.412 44.2582 164.306 45.0235 162.094 45.0235C161.03 45.0235 160.241 44.8788 159.728 44.5895C159.215 44.3002 158.958 43.7728 158.958 43.0075C158.958 42.6622 159.042 42.3635 159.21 42.1115C159.378 41.8688 159.649 41.6028 160.022 41.3135C159.714 41.1082 159.56 40.7675 159.56 40.2915C159.56 40.1048 159.686 39.8015 159.938 39.3815L160.064 39.1715C159.392 38.7702 159.056 38.0702 159.056 37.0715C159.056 36.2315 159.308 35.6155 159.812 35.2235C160.316 34.8315 160.997 34.6355 161.856 34.6355C162.267 34.6355 162.673 34.6822 163.074 34.7755L163.284 34.8175L165.454 34.7615V35.9935L164.292 35.9235C164.544 36.2502 164.67 36.6328 164.67 37.0715C164.67 37.9862 164.437 38.6208 163.97 38.9755C163.513 39.3208 162.794 39.4935 161.814 39.4935C161.571 39.4935 161.366 39.4748 161.198 39.4375C161.067 39.7548 161.002 40.0022 161.002 40.1795C161.002 40.3475 161.086 40.4642 161.254 40.5295C161.431 40.5948 161.851 40.6322 162.514 40.6415C163.625 40.6508 164.385 40.8002 164.796 41.0895C165.207 41.3788 165.412 41.9248 165.412 42.7275ZM160.456 42.8675C160.456 43.1942 160.587 43.4275 160.848 43.5675C161.109 43.7075 161.557 43.7775 162.192 43.7775C163.321 43.7775 163.886 43.4555 163.886 42.8115C163.886 42.4475 163.783 42.2142 163.578 42.1115C163.382 42.0182 162.985 41.9668 162.388 41.9575L161.016 41.8735C160.811 42.0415 160.666 42.1955 160.582 42.3355C160.498 42.4848 160.456 42.6622 160.456 42.8675ZM160.568 37.0715C160.568 37.5008 160.671 37.8182 160.876 38.0235C161.081 38.2195 161.413 38.3175 161.87 38.3175C162.327 38.3175 162.654 38.2195 162.85 38.0235C163.055 37.8182 163.158 37.5008 163.158 37.0715C163.158 36.6422 163.055 36.3295 162.85 36.1335C162.645 35.9282 162.313 35.8255 161.856 35.8255C160.997 35.8255 160.568 36.2408 160.568 37.0715Z" fill="white" style="fill:white;fill:white;fill-opacity:1;"/>
<path d="M157.378 36.9316V40.1236C157.388 40.3289 157.439 40.4829 157.532 40.5856C157.635 40.6789 157.789 40.7396 157.994 40.7676L157.952 41.9296C157.15 41.9296 156.529 41.7569 156.09 41.4116C155.344 41.7569 154.592 41.9296 153.836 41.9296C152.446 41.9296 151.75 41.1876 151.75 39.7036C151.75 38.9942 151.937 38.4809 152.31 38.1636C152.693 37.8462 153.276 37.6549 154.06 37.5896L155.866 37.4356V36.9316C155.866 36.5582 155.782 36.2969 155.614 36.1476C155.456 35.9982 155.218 35.9236 154.9 35.9236C154.303 35.9236 153.556 35.9609 152.66 36.0356L152.212 36.0636L152.156 34.9856C153.174 34.7429 154.107 34.6216 154.956 34.6216C155.815 34.6216 156.431 34.8082 156.804 35.1816C157.187 35.5456 157.378 36.1289 157.378 36.9316ZM154.242 38.6676C153.598 38.7236 153.276 39.0736 153.276 39.7176C153.276 40.3616 153.561 40.6836 154.13 40.6836C154.597 40.6836 155.092 40.6089 155.614 40.4596L155.866 40.3756V38.5136L154.242 38.6676Z" fill="white" style="fill:white;fill:white;fill-opacity:1;"/>
<path d="M150.947 36.0774H149.015V39.1574C149.015 39.7267 149.057 40.1047 149.141 40.2914C149.225 40.478 149.439 40.5714 149.785 40.5714L150.933 40.5294L151.003 41.7474C150.377 41.8687 149.901 41.9294 149.575 41.9294C148.781 41.9294 148.235 41.7474 147.937 41.3834C147.647 41.0194 147.503 40.3334 147.503 39.3254V36.0774H146.607V34.7754H147.503V32.7454H149.015V34.7754H150.947V36.0774Z" fill="white" style="fill:white;fill:white;fill-opacity:1;"/>
<path d="M145.476 36.2175C144.375 36.0682 143.577 35.9935 143.082 35.9935C142.588 35.9935 142.242 36.0542 142.046 36.1755C141.86 36.2875 141.766 36.4695 141.766 36.7215C141.766 36.9735 141.869 37.1508 142.074 37.2535C142.289 37.3562 142.784 37.4775 143.558 37.6175C144.342 37.7482 144.898 37.9582 145.224 38.2475C145.551 38.5368 145.714 39.0502 145.714 39.7875C145.714 40.5248 145.476 41.0662 145 41.4115C144.534 41.7568 143.848 41.9295 142.942 41.9295C142.373 41.9295 141.654 41.8502 140.786 41.6915L140.352 41.6215L140.408 40.3475C141.528 40.4968 142.336 40.5715 142.83 40.5715C143.325 40.5715 143.675 40.5108 143.88 40.3895C144.095 40.2682 144.202 40.0675 144.202 39.7875C144.202 39.5075 144.1 39.3162 143.894 39.2135C143.698 39.1015 143.218 38.9848 142.452 38.8635C141.696 38.7328 141.141 38.5322 140.786 38.2615C140.432 37.9908 140.254 37.4962 140.254 36.7775C140.254 36.0588 140.497 35.5222 140.982 35.1675C141.477 34.8128 142.107 34.6355 142.872 34.6355C143.47 34.6355 144.202 34.7102 145.07 34.8595L145.504 34.9435L145.476 36.2175Z" fill="white" style="fill:white;fill:white;fill-opacity:1;"/>
<path d="M134.502 41.7756H132.976V34.7756H134.488V35.2096C135.169 34.8176 135.813 34.6216 136.42 34.6216C137.353 34.6216 137.988 34.8876 138.324 35.4196C138.669 35.9422 138.842 36.8102 138.842 38.0236V41.7756H137.33V38.0656C137.33 37.3096 137.246 36.7729 137.078 36.4556C136.919 36.1382 136.588 35.9796 136.084 35.9796C135.608 35.9796 135.15 36.0729 134.712 36.2596L134.502 36.3436V41.7756Z" fill="white" style="fill:white;fill:white;fill-opacity:1;"/>
<path d="M129.398 41.7755V32.1855H130.952V41.7755H129.398Z" fill="white" style="fill:white;fill:white;fill-opacity:1;"/>
<path d="M121.081 41.7756V34.7756H122.593V35.6156C123.387 35.1022 124.18 34.7709 124.973 34.6216V36.1476C124.171 36.3062 123.485 36.5116 122.915 36.7636L122.607 36.8896V41.7756H121.081Z" fill="white" style="fill:white;fill:white;fill-opacity:1;"/>
<path d="M114.035 35.5316C114.521 34.9249 115.323 34.6216 116.443 34.6216C117.563 34.6216 118.361 34.9249 118.837 35.5316C119.323 36.1382 119.565 37.0482 119.565 38.2616C119.565 39.4749 119.332 40.3896 118.865 41.0056C118.399 41.6216 117.591 41.9296 116.443 41.9296C115.295 41.9296 114.488 41.6216 114.021 41.0056C113.555 40.3896 113.321 39.4749 113.321 38.2616C113.321 37.0482 113.559 36.1382 114.035 35.5316ZM115.183 40.0816C115.398 40.4549 115.818 40.6416 116.443 40.6416C117.069 40.6416 117.489 40.4549 117.703 40.0816C117.918 39.7082 118.025 39.0969 118.025 38.2476C118.025 37.3982 117.909 36.7962 117.675 36.4416C117.451 36.0869 117.041 35.9096 116.443 35.9096C115.846 35.9096 115.431 36.0869 115.197 36.4416C114.973 36.7962 114.861 37.3982 114.861 38.2476C114.861 39.0969 114.969 39.7082 115.183 40.0816Z" fill="white" style="fill:white;fill:white;fill-opacity:1;"/>
<path d="M110.733 36.0775V41.7755H109.221V36.0775H108.409V34.7755H109.221V34.3275C109.221 33.3288 109.366 32.6428 109.655 32.2695C109.945 31.8961 110.458 31.7095 111.195 31.7095L112.707 31.8495L112.693 33.0955C112.236 33.0768 111.853 33.0675 111.545 33.0675C111.247 33.0675 111.037 33.1608 110.915 33.3475C110.794 33.5248 110.733 33.8561 110.733 34.3415V34.7755H112.581V36.0775H110.733Z" fill="white" style="fill:white;fill:white;fill-opacity:1;"/>
<path d="M104.572 36.0774H102.64V39.1574C102.64 39.7267 102.682 40.1047 102.766 40.2914C102.85 40.478 103.064 40.5714 103.41 40.5714L104.558 40.5294L104.628 41.7474C104.002 41.8687 103.526 41.9294 103.2 41.9294C102.406 41.9294 101.86 41.7474 101.562 41.3834C101.272 41.0194 101.128 40.3334 101.128 39.3254V36.0774H100.232V34.7754H101.128V32.7454H102.64V34.7754H104.572V36.0774Z" fill="white" style="fill:white;fill:white;fill-opacity:1;"/>
<path d="M97.429 41.7756V34.7756H98.9549V41.7756H97.429ZM97.429 33.5856V31.9756H98.9549V33.5856H97.429Z" fill="white" style="fill:white;fill:white;fill-opacity:1;"/>
<path d="M91.9686 41.7755H90.4426V31.8635H91.9686V37.5895L92.8366 37.5055L94.4886 34.7755H96.1966L94.1806 38.0515L96.3086 41.7755H94.5866L92.8786 38.8215L91.9686 38.9195V41.7755Z" fill="white" style="fill:white;fill:white;fill-opacity:1;"/>
<path d="M86.9856 41.7755V31.8635H88.5116V41.7755H86.9856Z" fill="white" style="fill:white;fill:white;fill-opacity:1;"/>
<path d="M79.8556 35.5316C80.3409 34.9249 81.1436 34.6216 82.2636 34.6216C83.3836 34.6216 84.1816 34.9249 84.6576 35.5316C85.1429 36.1382 85.3856 37.0482 85.3856 38.2616C85.3856 39.4749 85.1523 40.3896 84.6856 41.0056C84.2189 41.6216 83.4116 41.9296 82.2636 41.9296C81.1156 41.9296 80.3083 41.6216 79.8416 41.0056C79.3749 40.3896 79.1416 39.4749 79.1416 38.2616C79.1416 37.0482 79.3796 36.1382 79.8556 35.5316ZM81.0036 40.0816C81.2183 40.4549 81.6383 40.6416 82.2636 40.6416C82.8889 40.6416 83.3089 40.4549 83.5236 40.0816C83.7383 39.7082 83.8456 39.0969 83.8456 38.2476C83.8456 37.3982 83.7289 36.7962 83.4956 36.4416C83.2716 36.0869 82.8609 35.9096 82.2636 35.9096C81.6663 35.9096 81.2509 36.0869 81.0176 36.4416C80.7936 36.7962 80.6816 37.3982 80.6816 38.2476C80.6816 39.0969 80.7889 39.7082 81.0036 40.0816Z" fill="white" style="fill:white;fill:white;fill-opacity:1;"/>
<path d="M72.4318 35.5316C72.9171 34.9249 73.7198 34.6216 74.8398 34.6216C75.9598 34.6216 76.7578 34.9249 77.2338 35.5316C77.7191 36.1382 77.9618 37.0482 77.9618 38.2616C77.9618 39.4749 77.7284 40.3896 77.2618 41.0056C76.7951 41.6216 75.9878 41.9296 74.8398 41.9296C73.6918 41.9296 72.8844 41.6216 72.4178 41.0056C71.9511 40.3896 71.7178 39.4749 71.7178 38.2616C71.7178 37.0482 71.9558 36.1382 72.4318 35.5316ZM73.5798 40.0816C73.7944 40.4549 74.2144 40.6416 74.8398 40.6416C75.4651 40.6416 75.8851 40.4549 76.0998 40.0816C76.3144 39.7082 76.4218 39.0969 76.4218 38.2476C76.4218 37.3982 76.3051 36.7962 76.0718 36.4416C75.8478 36.0869 75.4371 35.9096 74.8398 35.9096C74.2424 35.9096 73.8271 36.0869 73.5938 36.4416C73.3698 36.7962 73.2578 37.3982 73.2578 38.2476C73.2578 39.0969 73.3651 39.7082 73.5798 40.0816Z" fill="white" style="fill:white;fill:white;fill-opacity:1;"/>
<path d="M65.05 33.5715V32.1855H72.05V33.5715H69.3481V41.7755H67.7801V33.5715H65.05Z" fill="white" style="fill:white;fill:white;fill-opacity:1;"/>
<path d="M60.8675 31.8635V41.7755H59.3555V41.4115C58.6742 41.7569 58.0488 41.9295 57.4795 41.9295C56.5648 41.9295 55.8928 41.6542 55.4635 41.1035C55.0435 40.5529 54.8335 39.6289 54.8335 38.3315C54.8335 37.0342 55.0668 36.0915 55.5335 35.5035C56.0095 34.9155 56.7468 34.6215 57.7455 34.6215C58.0815 34.6215 58.6135 34.6822 59.3415 34.8035V31.8635H60.8675ZM59.1035 40.3195L59.3415 40.2215V36.0775C58.7815 35.9842 58.2635 35.9375 57.7875 35.9375C56.8448 35.9375 56.3735 36.7215 56.3735 38.2895C56.3735 39.1482 56.4808 39.7455 56.6955 40.0815C56.9195 40.4082 57.2695 40.5715 57.7455 40.5715C58.2215 40.5715 58.6742 40.4875 59.1035 40.3195Z" fill="white" style="fill:white;fill:white;fill-opacity:1;"/>
<path d="M53.2398 36.9316V40.1236C53.2491 40.3289 53.3005 40.4829 53.3938 40.5856C53.4965 40.6789 53.6505 40.7396 53.8558 40.7676L53.8138 41.9296C53.0111 41.9296 52.3905 41.7569 51.9518 41.4116C51.2051 41.7569 50.4538 41.9296 49.6978 41.9296C48.3071 41.9296 47.6118 41.1876 47.6118 39.7036C47.6118 38.9942 47.7985 38.4809 48.1718 38.1636C48.5545 37.8462 49.1378 37.6549 49.9218 37.5896L51.7278 37.4356V36.9316C51.7278 36.5582 51.6438 36.2969 51.4758 36.1476C51.3171 35.9982 51.0791 35.9236 50.7618 35.9236C50.1645 35.9236 49.4178 35.9609 48.5218 36.0356L48.0738 36.0636L48.0178 34.9856C49.0351 34.7429 49.9685 34.6216 50.8178 34.6216C51.6765 34.6216 52.2925 34.8082 52.6658 35.1816C53.0485 35.5456 53.2398 36.1289 53.2398 36.9316ZM50.1038 38.6676C49.4598 38.7236 49.1378 39.0736 49.1378 39.7176C49.1378 40.3616 49.4225 40.6836 49.9918 40.6836C50.4585 40.6836 50.9531 40.6089 51.4758 40.4596L51.7278 40.3756V38.5136L50.1038 38.6676Z" fill="white" style="fill:white;fill:white;fill-opacity:1;"/>
<path d="M41.0138 35.5316C41.4991 34.9249 42.3018 34.6216 43.4218 34.6216C44.5418 34.6216 45.3398 34.9249 45.8158 35.5316C46.3011 36.1382 46.5438 37.0482 46.5438 38.2616C46.5438 39.4749 46.3105 40.3896 45.8438 41.0056C45.3771 41.6216 44.5698 41.9296 43.4218 41.9296C42.2738 41.9296 41.4665 41.6216 40.9998 41.0056C40.5331 40.3896 40.2998 39.4749 40.2998 38.2616C40.2998 37.0482 40.5378 36.1382 41.0138 35.5316ZM42.1618 40.0816C42.3765 40.4549 42.7965 40.6416 43.4218 40.6416C44.0471 40.6416 44.4671 40.4549 44.6818 40.0816C44.8965 39.7082 45.0038 39.0969 45.0038 38.2476C45.0038 37.3982 44.8871 36.7962 44.6538 36.4416C44.4298 36.0869 44.0191 35.9096 43.4218 35.9096C42.8245 35.9096 42.4091 36.0869 42.1758 36.4416C41.9518 36.7962 41.8398 37.3982 41.8398 38.2476C41.8398 39.0969 41.9471 39.7082 42.1618 40.0816Z" fill="white" style="fill:white;fill:white;fill-opacity:1;"/>
<path d="M37.179 41.7755V31.8635H38.705V41.7755H37.179Z" fill="white" style="fill:white;fill:white;fill-opacity:1;"/>
<path d="M30.9784 41.7756H29.4524V34.7756H30.9644V35.2096C31.6457 34.8176 32.2897 34.6216 32.8964 34.6216C33.8297 34.6216 34.4644 34.8876 34.8004 35.4196C35.1457 35.9422 35.3184 36.8102 35.3184 38.0236V41.7756H33.8064V38.0656C33.8064 37.3096 33.7224 36.7729 33.5544 36.4556C33.3957 36.1382 33.0644 35.9796 32.5604 35.9796C32.0844 35.9796 31.6271 36.0729 31.1884 36.2596L30.9784 36.3436V41.7756Z" fill="white" style="fill:white;fill:white;fill-opacity:1;"/>
<path d="M18.1602 34.7754H19.6582L20.7642 40.4734H21.0442L22.3742 34.9154H23.9422L25.2722 40.4734H25.5522L26.6442 34.7754H28.1562L26.6722 41.7754H24.2502L23.1582 36.9734L22.0662 41.7754H19.6442L18.1602 34.7754Z" fill="white" style="fill:white;fill:white;fill-opacity:1;"/>
<path d="M11.6603 35.5316C12.1456 34.9249 12.9483 34.6216 14.0683 34.6216C15.1883 34.6216 15.9863 34.9249 16.4623 35.5316C16.9476 36.1382 17.1903 37.0482 17.1903 38.2616C17.1903 39.4749 16.957 40.3896 16.4903 41.0056C16.0236 41.6216 15.2163 41.9296 14.0683 41.9296C12.9203 41.9296 12.113 41.6216 11.6463 41.0056C11.1796 40.3896 10.9463 39.4749 10.9463 38.2616C10.9463 37.0482 11.1843 36.1382 11.6603 35.5316ZM12.8083 40.0816C13.023 40.4549 13.443 40.6416 14.0683 40.6416C14.6936 40.6416 15.1136 40.4549 15.3283 40.0816C15.543 39.7082 15.6503 39.0969 15.6503 38.2476C15.6503 37.3982 15.5336 36.7962 15.3003 36.4416C15.0763 36.0869 14.6656 35.9096 14.0683 35.9096C13.471 35.9096 13.0556 36.0869 12.8223 36.4416C12.5983 36.7962 12.4863 37.3982 12.4863 38.2476C12.4863 39.0969 12.5936 39.7082 12.8083 40.0816Z" fill="white" style="fill:white;fill:white;fill-opacity:1;"/>
<path d="M5.81361 41.7755H2.49561V32.1855H5.81361C7.28827 32.1855 8.29627 32.5589 8.83761 33.3055C9.37894 34.0522 9.64961 35.2235 9.64961 36.8195C9.64961 37.6315 9.59361 38.3222 9.48161 38.8915C9.37894 39.4515 9.19227 39.9602 8.92161 40.4175C8.38961 41.3229 7.35361 41.7755 5.81361 41.7755ZM8.03961 36.8195C8.03961 35.6622 7.89494 34.8269 7.60561 34.3135C7.31627 33.8002 6.71894 33.5435 5.81361 33.5435H4.04961V40.4035H5.81361C6.73761 40.4035 7.35361 40.0629 7.66161 39.3815C7.81094 39.0362 7.90894 38.6675 7.95561 38.2755C8.01161 37.8835 8.03961 37.3982 8.03961 36.8195Z" fill="white" style="fill:white;fill:white;fill-opacity:1;"/>
</svg>
