<svg width="18" height="18" viewBox="0 0 18 18" fill="none" xmlns="http://www.w3.org/2000/svg">
<path fill-rule="evenodd" clip-rule="evenodd" d="M11 8L9 0L9.05041 0.0360093L9.03515 6.10352e-05C13.9895 0.0190029 18 4.04115 18 8.99999C18 12.9109 15.5054 16.2392 12.0207 17.4805L11.2371 15.6349C14.006 14.7017 16 12.0837 16 8.99999C16 7.74395 15.6692 6.56517 15.0899 5.54604L11 8ZM0 8.99999C0 5.08349 2.50167 1.75129 5.99423 0.514152L6.77793 2.36004C4.00119 3.28887 2 5.91073 2 8.99999C2 10.256 2.33082 11.4348 2.91008 12.454L7 10L9 18L8.97418 17.9816L8.982 18C4.01971 17.9903 0 13.9646 0 8.99999Z" fill="white"/>
</svg>
